<svg width="24" height="24" viewBox="0 0 24 24" fill="none" xmlns="http://www.w3.org/2000/svg">
  <path fill-rule="evenodd" clip-rule="evenodd"
    d="M1 9.28372C0.999852 9.11495 1.06216 8.94613 1.18691 8.81492L6.28374 3.71844C6.34748 3.6547 6.43392 3.6189 6.52406 3.6189H13.0362C13.3388 3.6189 13.4905 3.98456 13.2768 4.1988L8.20534 9.28372H1Z"
    fill="#73E6E6" />
  <path fill-rule="evenodd" clip-rule="evenodd"
    d="M1 9.28491C0.999852 9.45368 1.06216 9.62252 1.18692 9.75373L6.28374 14.8502C6.34748 14.9139 6.43392 14.9497 6.52406 14.9497H13.0362C13.3388 14.9497 13.4905 14.5841 13.2768 14.3698L8.20534 9.28491H1Z"
    fill="#2BCCCC" />
  <mask id="mask0_86_3022" style="mask-type:alpha" maskUnits="userSpaceOnUse" x="8" y="9" width="1"
    height="1">
    <path fill-rule="evenodd" clip-rule="evenodd"
      d="M8.43965 9.05127L8.2066 9.28438L8.43965 9.51742C8.31116 9.38864 8.31116 9.18012 8.43965 9.05127Z"
      fill="#D9D9D9" />
  </mask>
  <g mask="url(#mask0_86_3022)">
    <path d="M8.43951 9.04834H8.20276V9.28509H8.43951V9.04834Z" fill="#67E9E9" />
    <path d="M8.43951 9.28467H8.20276V9.52142H8.43951V9.28467Z" fill="#2BCCCC" />
  </g>
  <path fill-rule="evenodd" clip-rule="evenodd"
    d="M23 14.7163C23.0001 14.5476 22.9378 14.3788 22.813 14.2476L17.7162 9.15106C17.6525 9.08734 17.5661 9.05151 17.4759 9.05151H10.9638C10.6612 9.05151 10.5095 9.41717 10.7231 9.63143L15.7946 14.7163H23Z"
    fill="#4076FF" />
  <path fill-rule="evenodd" clip-rule="evenodd"
    d="M23 14.7161C23.0002 14.8828 22.9395 15.0495 22.8178 15.1801L17.7162 20.2813C17.6525 20.345 17.5661 20.3809 17.4759 20.3809H10.9638C10.6612 20.3809 10.5095 20.0152 10.7231 19.801L15.7946 14.7161H23Z"
    fill="#0052D9" />
  <mask id="mask1_86_3022" style="mask-type:alpha" maskUnits="userSpaceOnUse" x="15" y="14"
    width="1" height="1">
    <path fill-rule="evenodd" clip-rule="evenodd"
      d="M15.5618 14.4832L15.7949 14.7162L15.5618 14.9493C15.6903 14.8204 15.6903 14.6119 15.5618 14.4832Z"
      fill="#D9D9D9" />
  </mask>
  <g mask="url(#mask1_86_3022)">
    <path d="M15.562 14.48H15.7988V14.7167H15.562V14.48Z" fill="#4896FF" />
    <path d="M15.562 14.7163H15.7988V14.9531H15.562V14.7163Z" fill="#0052D9" />
  </g>
</svg>
